<!DOCTYPE svg PUBLIC "-//W3C//DTD SVG 1.1//EN" "http://www.w3.org/Graphics/SVG/1.1/DTD/svg11.dtd">
<!-- Uploaded to: SVG Repo, www.svgrepo.com, Transformed by: SVG Repo Mixer Tools -->
<svg width="100px" height="100px" viewBox="0 0 32 32" enable-background="new 0 0 32 32" version="1.1" xml:space="preserve" xmlns="http://www.w3.org/2000/svg" xmlns:xlink="http://www.w3.org/1999/xlink" fill="#000000" transform="rotate(0)matrix(-1, 0, 0, 1, 0, 0)" stroke="#000000">
<g id="SVGRepo_bgCarrier" stroke-width="0"/>
<g id="SVGRepo_tracerCarrier" stroke-linecap="round" stroke-linejoin="round" stroke="#CCCCCC" stroke-width="0.256"/>
<g id="SVGRepo_iconCarrier"> <g id="Packaging_Delivery31"/> <g id="Packaging_Delivery30"/> <g id="Packaging_Delivery29"/> <g id="Packaging_Delivery28"/> <g id="Packaging_Delivery27"/> <g id="Packaging_Delivery26"> <g> <path d="M14,9c0,0.55-0.45,1-1,1H1V8h12C13.55,8,14,8.45,14,9z" fill="#e6e6e6"/> </g> <g> <path d="M10,13c0,0.55-0.45,1-1,1H1v-2h8C9.55,12,10,12.45,10,13z" fill="#e6e6e6"/> </g> </g> <g id="Packaging_Delivery25"/> <g id="Packaging_Delivery24"/> <g id="Packaging_Delivery23"/> <g id="Packaging_Delivery22"/> <g id="Packaging_Delivery21"> <g> <path d="M30,17v7c0,0.55-0.45,1-1,1H19c-0.55,0-1-0.45-1-1V12c0-0.55,0.45-1,1-1h6c0.3,0,0.59,0.14,0.78,0.38 l4,4.99c0.05,0.07,0.1,0.15,0.14,0.23c0,0.01,0,0.01,0,0.01s0,0,0,0.01C29.98,16.74,30,16.87,30,17z" fill="#3f474b"/> </g> <path d="M20,5H2C1.45,5,1,5.45,1,6v18c0,0.55,0.45,1,1,1h4h4h10h1v-1V6C21,5.45,20.55,5,20,5z" fill="#248fbc"/> <g> <path d="M14,9c0,0.55-0.45,1-1,1H1V8h12C13.55,8,14,8.45,14,9z" fill="#546a73"/> </g> <g> <path d="M10,13c0,0.55-0.45,1-1,1H1v-2h8C9.55,12,10,12.45,10,13z" fill="#546a73"/> </g> <g> <path d="M28,24c0,1.65-1.35,3-3,3s-3-1.35-3-3c0-1.65,1.35-3,3-3S28,22.35,28,24z" fill="#546a73"/> </g> <g> <path d="M11,24c0,1.65-1.35,3-3,3s-3-1.35-3-3c0-1.65,1.35-3,3-3S11,22.35,11,24z" fill="#546a73"/> </g> <path d="M30,17v0.01L24,17v-6h1c0.3,0,0.59,0.14,0.78,0.38l4,4.99c0.05,0.07,0.1,0.15,0.14,0.23 c0,0.01,0,0.01,0,0.01s0,0,0,0.01C29.98,16.74,30,16.87,30,17z" fill="#248fbc"/> </g> <g id="Packaging_Delivery20"/> <g id="Packaging_Delivery19"/> <g id="Packaging_Delivery18"/> <g id="Packaging_Delivery17"/> <g id="Packaging_Delivery16"/> <g id="Packaging_Delivery15"/> <g id="Packaging_Delivery14"/> <g id="Packaging_Delivery13"/> <g id="Packaging_Delivery12"/> <g id="Packaging_Delivery11"/> <g id="Packaging_Delivery10"/> <g id="Packaging_Delivery09"/> <g id="Packaging_Delivery08"/> <g id="Packaging_Delivery07"/> <g id="Packaging_Delivery06"/> <g id="Packaging_Delivery05"/> <g id="Packaging_Delivery04"/> <g id="Packaging_Delivery03"/> <g id="Packaging_Delivery02"/> <g id="Packaging_Delivery01"/> </g>
</svg>