<svg width="512" height="142" viewBox="0 0 512 142" fill="none" xmlns="http://www.w3.org/2000/svg">
<path d="M140.96 87.864C137.792 87.864 135.12 87.256 132.944 86.04C130.8 84.792 129.168 83.064 128.048 80.856C126.96 78.616 126.416 76.024 126.416 73.08V51.96H131.12V73.656C131.12 75.608 131.488 77.336 132.224 78.84C132.992 80.312 134.112 81.464 135.584 82.296C137.056 83.128 138.848 83.544 140.96 83.544C143.072 83.544 144.848 83.144 146.288 82.344C147.76 81.512 148.864 80.36 149.6 78.888C150.368 77.384 150.752 75.64 150.752 73.656V51.96H155.456V73.08C155.456 76.024 154.912 78.616 153.824 80.856C152.736 83.064 151.12 84.792 148.976 86.04C146.832 87.256 144.16 87.864 140.96 87.864ZM164.291 87V61.368H167.939V71.928H167.747C167.747 68.184 168.563 65.448 170.195 63.72C171.859 61.96 174.339 61.08 177.635 61.08H178.499V65.208H176.867C174.307 65.208 172.339 65.896 170.963 67.272C169.587 68.616 168.899 70.568 168.899 73.128V87H164.291ZM197.515 87.864C195.403 87.864 193.515 87.4 191.851 86.472C190.219 85.544 188.923 84.2 187.963 82.44C187.003 80.648 186.475 78.504 186.379 76.008H187.627V87H183.979V51.96H188.587V69L186.955 72.504C187.083 69.72 187.643 67.448 188.635 65.688C189.627 63.928 190.923 62.632 192.523 61.8C194.155 60.936 195.947 60.504 197.899 60.504C199.723 60.504 201.387 60.856 202.891 61.56C204.395 62.232 205.691 63.176 206.779 64.392C207.867 65.576 208.699 66.968 209.275 68.568C209.851 70.136 210.139 71.832 210.139 73.656V74.52C210.139 76.344 209.835 78.056 209.227 79.656C208.651 81.256 207.803 82.68 206.682 83.928C205.563 85.144 204.219 86.104 202.651 86.808C201.115 87.512 199.403 87.864 197.515 87.864ZM196.987 83.832C198.715 83.832 200.219 83.416 201.499 82.584C202.779 81.752 203.771 80.616 204.475 79.176C205.179 77.704 205.531 76.008 205.531 74.088C205.531 72.168 205.163 70.488 204.427 69.048C203.723 67.608 202.731 66.504 201.451 65.736C200.171 64.936 198.683 64.536 196.987 64.536C195.451 64.536 194.027 64.888 192.715 65.592C191.403 66.264 190.347 67.256 189.547 68.568C188.779 69.848 188.395 71.4 188.395 73.224V75.432C188.395 77.192 188.795 78.696 189.595 79.944C190.395 81.192 191.451 82.152 192.763 82.824C194.075 83.496 195.483 83.832 196.987 83.832ZM232.576 87V79.32H231.808V70.44C231.808 68.68 231.344 67.352 230.416 66.456C229.52 65.56 228.192 65.112 226.432 65.112C225.44 65.112 224.416 65.128 223.36 65.16C222.304 65.192 221.296 65.224 220.336 65.256C219.376 65.288 218.544 65.336 217.84 65.4V61.368C218.544 61.304 219.28 61.256 220.048 61.224C220.848 61.16 221.664 61.128 222.496 61.128C223.328 61.096 224.128 61.08 224.896 61.08C227.52 61.08 229.664 61.4 231.328 62.04C232.992 62.648 234.224 63.656 235.024 65.064C235.824 66.472 236.224 68.376 236.224 70.776V87H232.576ZM224.176 87.672C222.256 87.672 220.592 87.352 219.184 86.712C217.808 86.04 216.736 85.08 215.968 83.832C215.232 82.584 214.864 81.08 214.864 79.32C214.864 77.496 215.264 75.976 216.064 74.76C216.896 73.544 218.096 72.632 219.664 72.024C221.232 71.384 223.12 71.064 225.328 71.064H232.288V74.52H225.136C223.28 74.52 221.856 74.968 220.864 75.864C219.872 76.76 219.376 77.912 219.376 79.32C219.376 80.728 219.872 81.864 220.864 82.728C221.856 83.592 223.28 84.024 225.136 84.024C226.224 84.024 227.264 83.832 228.256 83.448C229.248 83.032 230.064 82.36 230.704 81.432C231.376 80.472 231.744 79.16 231.808 77.496L233.056 79.32C232.896 81.144 232.448 82.68 231.712 83.928C231.008 85.144 230.016 86.072 228.736 86.712C227.488 87.352 225.968 87.672 224.176 87.672ZM244.682 87V61.368H248.33V72.36H247.754C247.754 69.832 248.09 67.704 248.762 65.976C249.466 64.216 250.522 62.888 251.93 61.992C253.338 61.064 255.114 60.6 257.258 60.6H257.45C260.682 60.6 263.066 61.608 264.602 63.624C266.17 65.64 266.954 68.552 266.954 72.36V87H262.346V71.4C262.346 69.416 261.786 67.832 260.666 66.648C259.546 65.432 258.01 64.824 256.058 64.824C254.042 64.824 252.41 65.448 251.162 66.696C249.914 67.944 249.29 69.608 249.29 71.688V87H244.682ZM291.273 87.864C288.073 87.864 285.337 87.304 283.065 86.184C280.825 85.064 279.017 83.608 277.641 81.816C276.265 80.024 275.257 78.088 274.617 76.008C273.977 73.896 273.657 71.864 273.657 69.912V68.856C273.657 66.744 273.977 64.632 274.617 62.52C275.289 60.408 276.313 58.488 277.689 56.76C279.065 55.032 280.857 53.64 283.065 52.584C285.273 51.528 287.913 51 290.985 51C294.121 51 296.809 51.544 299.049 52.632C301.289 53.72 303.065 55.24 304.377 57.192C305.689 59.144 306.489 61.448 306.777 64.104H301.977C301.721 62.12 301.081 60.488 300.057 59.208C299.033 57.896 297.737 56.92 296.169 56.28C294.633 55.64 292.905 55.32 290.985 55.32C288.905 55.32 287.081 55.688 285.513 56.424C283.945 57.128 282.633 58.136 281.577 59.448C280.553 60.728 279.769 62.216 279.225 63.912C278.713 65.608 278.457 67.448 278.457 69.432C278.457 71.32 278.713 73.112 279.225 74.808C279.769 76.504 280.569 78.008 281.625 79.32C282.713 80.632 284.057 81.672 285.657 82.44C287.257 83.176 289.129 83.544 291.273 83.544C294.281 83.544 296.809 82.792 298.857 81.288C300.905 79.784 302.153 77.608 302.601 74.76H307.401C307.081 77.16 306.265 79.352 304.953 81.336C303.673 83.32 301.881 84.904 299.577 86.088C297.305 87.272 294.537 87.864 291.273 87.864ZM329.045 87V79.32H328.277V70.44C328.277 68.68 327.813 67.352 326.885 66.456C325.989 65.56 324.661 65.112 322.901 65.112C321.909 65.112 320.885 65.128 319.829 65.16C318.773 65.192 317.765 65.224 316.805 65.256C315.845 65.288 315.013 65.336 314.309 65.4V61.368C315.013 61.304 315.749 61.256 316.517 61.224C317.317 61.16 318.133 61.128 318.965 61.128C319.797 61.096 320.597 61.08 321.365 61.08C323.989 61.08 326.133 61.4 327.797 62.04C329.461 62.648 330.693 63.656 331.493 65.064C332.293 66.472 332.693 68.376 332.693 70.776V87H329.045ZM320.645 87.672C318.725 87.672 317.061 87.352 315.653 86.712C314.277 86.04 313.205 85.08 312.437 83.832C311.701 82.584 311.333 81.08 311.333 79.32C311.333 77.496 311.733 75.976 312.533 74.76C313.365 73.544 314.565 72.632 316.133 72.024C317.701 71.384 319.589 71.064 321.797 71.064H328.757V74.52H321.605C319.749 74.52 318.325 74.968 317.333 75.864C316.341 76.76 315.845 77.912 315.845 79.32C315.845 80.728 316.341 81.864 317.333 82.728C318.325 83.592 319.749 84.024 321.605 84.024C322.693 84.024 323.733 83.832 324.725 83.448C325.717 83.032 326.533 82.36 327.173 81.432C327.845 80.472 328.213 79.16 328.277 77.496L329.525 79.32C329.365 81.144 328.917 82.68 328.181 83.928C327.477 85.144 326.485 86.072 325.205 86.712C323.957 87.352 322.437 87.672 320.645 87.672ZM341.15 87V61.368H344.798V71.928H344.606C344.606 68.184 345.422 65.448 347.054 63.72C348.718 61.96 351.198 61.08 354.494 61.08H355.358V65.208H353.726C351.166 65.208 349.198 65.896 347.822 67.272C346.446 68.616 345.758 70.568 345.758 73.128V87H341.15ZM371.291 87.288C369.371 87.288 367.707 87.016 366.299 86.472C364.923 85.928 363.851 85 363.083 83.688C362.347 82.344 361.979 80.536 361.979 78.264V53.592H366.395V78.84C366.395 80.216 366.763 81.288 367.499 82.056C368.267 82.792 369.339 83.16 370.715 83.16H375.227V87.288H371.291ZM357.563 64.824V61.368H375.227V64.824H357.563Z" fill="white"/>
<path d="M380.832 87V81.144H386.4V87H380.832Z" fill="#03B9C1"/>
</svg>
