<svg width="261" height="37" viewBox="0 0 261 37" fill="none" xmlns="http://www.w3.org/2000/svg">
<path d="M14.96 36.864C11.792 36.864 9.12 36.256 6.944 35.04C4.8 33.792 3.168 32.064 2.048 29.856C0.96 27.616 0.416 25.024 0.416 22.08V0.959999H5.12V22.656C5.12 24.608 5.488 26.336 6.224 27.84C6.992 29.312 8.112 30.464 9.584 31.296C11.056 32.128 12.848 32.544 14.96 32.544C17.072 32.544 18.848 32.144 20.288 31.344C21.76 30.512 22.864 29.36 23.6 27.888C24.368 26.384 24.752 24.64 24.752 22.656V0.959999H29.456V22.08C29.456 25.024 28.912 27.616 27.824 29.856C26.736 32.064 25.12 33.792 22.976 35.04C20.832 36.256 18.16 36.864 14.96 36.864ZM38.291 36V10.368H41.939V20.928H41.747C41.747 17.184 42.563 14.448 44.195 12.72C45.859 10.96 48.339 10.08 51.635 10.08H52.499V14.208H50.867C48.307 14.208 46.339 14.896 44.963 16.272C43.587 17.616 42.899 19.568 42.899 22.128V36H38.291ZM71.5145 36.864C69.4025 36.864 67.5145 36.4 65.8505 35.472C64.2185 34.544 62.9225 33.2 61.9625 31.44C61.0025 29.648 60.4745 27.504 60.3785 25.008H61.6265V36H57.9785V0.959999H62.5865V18L60.9545 21.504C61.0825 18.72 61.6425 16.448 62.6345 14.688C63.6265 12.928 64.9225 11.632 66.5225 10.8C68.1545 9.936 69.9465 9.504 71.8985 9.504C73.7225 9.504 75.3865 9.856 76.8905 10.56C78.3945 11.232 79.6905 12.176 80.7785 13.392C81.8665 14.576 82.6985 15.968 83.2745 17.568C83.8505 19.136 84.1385 20.832 84.1385 22.656V23.52C84.1385 25.344 83.8345 27.056 83.2265 28.656C82.6505 30.256 81.8025 31.68 80.6825 32.928C79.5625 34.144 78.2185 35.104 76.6505 35.808C75.1145 36.512 73.4025 36.864 71.5145 36.864ZM70.9865 32.832C72.7145 32.832 74.2185 32.416 75.4985 31.584C76.7785 30.752 77.7705 29.616 78.4745 28.176C79.1785 26.704 79.5305 25.008 79.5305 23.088C79.5305 21.168 79.1625 19.488 78.4265 18.048C77.7225 16.608 76.7305 15.504 75.4505 14.736C74.1705 13.936 72.6825 13.536 70.9865 13.536C69.4505 13.536 68.0265 13.888 66.7145 14.592C65.4025 15.264 64.3465 16.256 63.5465 17.568C62.7785 18.848 62.3945 20.4 62.3945 22.224V24.432C62.3945 26.192 62.7945 27.696 63.5945 28.944C64.3945 30.192 65.4505 31.152 66.7625 31.824C68.0745 32.496 69.4825 32.832 70.9865 32.832ZM106.576 36V28.32H105.808V19.44C105.808 17.68 105.344 16.352 104.416 15.456C103.52 14.56 102.192 14.112 100.432 14.112C99.4403 14.112 98.4163 14.128 97.3603 14.16C96.3043 14.192 95.2963 14.224 94.3363 14.256C93.3763 14.288 92.5443 14.336 91.8403 14.4V10.368C92.5443 10.304 93.2803 10.256 94.0483 10.224C94.8483 10.16 95.6643 10.128 96.4963 10.128C97.3283 10.096 98.1283 10.08 98.8963 10.08C101.52 10.08 103.664 10.4 105.328 11.04C106.992 11.648 108.224 12.656 109.024 14.064C109.824 15.472 110.224 17.376 110.224 19.776V36H106.576ZM98.1763 36.672C96.2563 36.672 94.5923 36.352 93.1843 35.712C91.8083 35.04 90.7363 34.08 89.9683 32.832C89.2323 31.584 88.8643 30.08 88.8643 28.32C88.8643 26.496 89.2643 24.976 90.0643 23.76C90.8963 22.544 92.0963 21.632 93.6643 21.024C95.2323 20.384 97.1203 20.064 99.3282 20.064H106.288V23.52H99.1363C97.2803 23.52 95.8563 23.968 94.8643 24.864C93.8723 25.76 93.3763 26.912 93.3763 28.32C93.3763 29.728 93.8723 30.864 94.8643 31.728C95.8563 32.592 97.2803 33.024 99.1363 33.024C100.224 33.024 101.264 32.832 102.256 32.448C103.248 32.032 104.064 31.36 104.704 30.432C105.376 29.472 105.744 28.16 105.808 26.496L107.056 28.32C106.896 30.144 106.448 31.68 105.712 32.928C105.008 34.144 104.016 35.072 102.736 35.712C101.488 36.352 99.9683 36.672 98.1763 36.672ZM118.682 36V10.368H122.33V21.36H121.754C121.754 18.832 122.09 16.704 122.762 14.976C123.466 13.216 124.522 11.888 125.93 10.992C127.338 10.064 129.114 9.6 131.258 9.6H131.45C134.682 9.6 137.066 10.608 138.602 12.624C140.17 14.64 140.954 17.552 140.954 21.36V36H136.346V20.4C136.346 18.416 135.786 16.832 134.666 15.648C133.546 14.432 132.01 13.824 130.058 13.824C128.042 13.824 126.41 14.448 125.162 15.696C123.914 16.944 123.29 18.608 123.29 20.688V36H118.682ZM165.273 36.864C162.073 36.864 159.337 36.304 157.065 35.184C154.825 34.064 153.017 32.608 151.641 30.816C150.265 29.024 149.257 27.088 148.617 25.008C147.977 22.896 147.657 20.864 147.657 18.912V17.856C147.657 15.744 147.977 13.632 148.617 11.52C149.289 9.408 150.313 7.488 151.689 5.76C153.065 4.032 154.857 2.64 157.065 1.584C159.273 0.527998 161.913 -2.86102e-06 164.985 -2.86102e-06C168.121 -2.86102e-06 170.809 0.543998 173.049 1.632C175.289 2.72 177.065 4.24 178.377 6.192C179.689 8.144 180.489 10.448 180.777 13.104H175.977C175.721 11.12 175.081 9.488 174.057 8.208C173.033 6.896 171.737 5.92 170.169 5.28C168.633 4.64 166.905 4.32 164.985 4.32C162.905 4.32 161.081 4.688 159.513 5.424C157.945 6.128 156.633 7.136 155.577 8.448C154.553 9.728 153.769 11.216 153.225 12.912C152.713 14.608 152.457 16.448 152.457 18.432C152.457 20.32 152.713 22.112 153.225 23.808C153.769 25.504 154.569 27.008 155.625 28.32C156.713 29.632 158.057 30.672 159.657 31.44C161.257 32.176 163.129 32.544 165.273 32.544C168.281 32.544 170.809 31.792 172.857 30.288C174.905 28.784 176.153 26.608 176.601 23.76H181.401C181.081 26.16 180.265 28.352 178.953 30.336C177.673 32.32 175.881 33.904 173.577 35.088C171.305 36.272 168.537 36.864 165.273 36.864ZM203.045 36V28.32H202.277V19.44C202.277 17.68 201.813 16.352 200.885 15.456C199.989 14.56 198.661 14.112 196.901 14.112C195.909 14.112 194.885 14.128 193.829 14.16C192.773 14.192 191.765 14.224 190.805 14.256C189.845 14.288 189.013 14.336 188.309 14.4V10.368C189.013 10.304 189.749 10.256 190.517 10.224C191.317 10.16 192.133 10.128 192.965 10.128C193.797 10.096 194.597 10.08 195.365 10.08C197.989 10.08 200.133 10.4 201.797 11.04C203.461 11.648 204.693 12.656 205.493 14.064C206.293 15.472 206.693 17.376 206.693 19.776V36H203.045ZM194.645 36.672C192.725 36.672 191.061 36.352 189.653 35.712C188.277 35.04 187.205 34.08 186.437 32.832C185.701 31.584 185.333 30.08 185.333 28.32C185.333 26.496 185.733 24.976 186.533 23.76C187.365 22.544 188.565 21.632 190.133 21.024C191.701 20.384 193.589 20.064 195.797 20.064H202.757V23.52H195.605C193.749 23.52 192.325 23.968 191.333 24.864C190.341 25.76 189.845 26.912 189.845 28.32C189.845 29.728 190.341 30.864 191.333 31.728C192.325 32.592 193.749 33.024 195.605 33.024C196.693 33.024 197.733 32.832 198.725 32.448C199.717 32.032 200.533 31.36 201.173 30.432C201.845 29.472 202.213 28.16 202.277 26.496L203.525 28.32C203.365 30.144 202.917 31.68 202.181 32.928C201.477 34.144 200.485 35.072 199.205 35.712C197.957 36.352 196.437 36.672 194.645 36.672ZM215.15 36V10.368H218.798V20.928H218.606C218.606 17.184 219.422 14.448 221.054 12.72C222.718 10.96 225.198 10.08 228.494 10.08H229.358V14.208H227.726C225.166 14.208 223.198 14.896 221.822 16.272C220.446 17.616 219.758 19.568 219.758 22.128V36H215.15ZM245.291 36.288C243.371 36.288 241.707 36.016 240.299 35.472C238.923 34.928 237.851 34 237.083 32.688C236.347 31.344 235.979 29.536 235.979 27.264V2.592H240.395V27.84C240.395 29.216 240.763 30.288 241.499 31.056C242.267 31.792 243.339 32.16 244.715 32.16H249.227V36.288H245.291ZM231.563 13.824V10.368H249.227V13.824H231.563Z" fill="black"/>
<path d="M254.832 36V30.144H260.4V36H254.832Z" fill="#03B9C1"/>
</svg>
